<svg
  viewBox="0 0 300 550"
  xmlns="http://www.w3.org/2000/svg"
  shape-rendering="crispEdges"
>
  <!-- 1) Solid dark base -->
  <rect
    x="0" y="0"
    width="300" height="550"
    rx="12" ry="12"
    fill="#0a0a0a"
  />

  <!-- 2) Outer accent-blue border -->
  <rect
    x="2" y="2"
    width="292" height="542"
    rx="10" ry="10"
    fill="none"
    stroke="rgb(0,199,255)"
    stroke-width="4"
  />

  <!-- 3) Thin white border -->
  <rect
    x="12" y="12"
    width="270" height="520"
    rx="7" ry="7"
    fill="none"
    stroke="#ffffff"
    stroke-width="1"
  />

  <!-- 4) Central accent ring -->
  <circle
    cx="150" cy="275" r="90"
    fill="none"
    stroke="rgb(0,199,255)"
    stroke-width="2"
  />

  <!-- 5) Pixel-art 'G' in white -->
  <g fill="#ffffff">
    <!-- Grid size 7×7, square size 8px, centered at (150,275) -->
    <!-- Row 0 -->
    <rect x="122" y="247" width="8" height="8"/>
    <rect x="130" y="247" width="8" height="8"/>
    <rect x="138" y="247" width="8" height="8"/>
    <rect x="146" y="247" width="8" height="8"/>
    <rect x="154" y="247" width="8" height="8"/>
    <rect x="162" y="247" width="8" height="8"/>
    <rect x="170" y="247" width="8" height="8"/>

    <!-- Row 1 -->
    <rect x="122" y="255" width="8" height="8"/>

    <!-- Row 2 -->
    <rect x="122" y="263" width="8" height="8"/>
    <rect x="154" y="263" width="8" height="8"/>
    <rect x="162" y="263" width="8" height="8"/>
    <rect x="170" y="263" width="8" height="8"/>

    <!-- Row 3 -->
    <rect x="122" y="271" width="8" height="8"/>
    <rect x="154" y="271" width="8" height="8"/>
    <rect x="170" y="271" width="8" height="8"/>

    <!-- Row 4 -->
    <rect x="122" y="279" width="8" height="8"/>
    <rect x="154" y="279" width="8" height="8"/>
    <rect x="162" y="279" width="8" height="8"/>
    <rect x="170" y="279" width="8" height="8"/>

    <!-- Row 5 -->
    <rect x="122" y="287" width="8" height="8"/>
    <rect x="170" y="287" width="8" height="8"/>

    <!-- Row 6 -->
    <rect x="122" y="295" width="8" height="8"/>
    <rect x="130" y="295" width="8" height="8"/>
    <rect x="138" y="295" width="8" height="8"/>
    <rect x="146" y="295" width="8" height="8"/>
    <rect x="154" y="295" width="8" height="8"/>
    <rect x="162" y="295" width="8" height="8"/>
    <rect x="170" y="295" width="8" height="8"/>
  </g>
</svg>
